<svg width="24" height="22" viewBox="0 0 24 22" fill="none" xmlns="http://www.w3.org/2000/svg">
<path fill-rule="evenodd" clip-rule="evenodd" d="M11.8725 3.15511L11.2175 2.38951C8.58142 -0.246533 4.37761 -0.0669 1.74157 2.56914C-0.894471 5.20518 -0.387159 10.3015 2.24888 12.9375C3.31874 14.0074 4.92092 15.4887 7.05542 17.3815L8.85115 18.9612L10.8681 20.712C11.4234 21.1913 12.2439 21.1986 12.8077 20.7293L14.4416 19.3594C17.3029 16.9413 19.4262 15.0366 20.8115 13.6454L21.171 13.2788L21.4939 12.9375C23.9489 10.2901 24.5798 5.14387 22.005 2.56914L21.8185 2.38951C19.1711 -0.0654743 15.179 -0.185229 12.6042 2.38951L11.8725 3.15511ZM2.80223 3.6298C4.88666 1.54537 8.11137 1.44765 10.118 3.41183L11.8111 5.39048L13.6886 3.42588C15.6145 1.50055 18.6838 1.52838 20.7986 3.48939L20.9645 3.64958C22.7839 5.46937 22.4744 9.67411 20.394 11.9176L20.0815 12.2477L19.7348 12.6012C18.5864 13.7537 16.8845 15.2978 14.6405 17.2208L13.4734 18.2138L11.8481 19.5764L9.83442 17.8285L8.39319 16.5625C6.36239 14.7676 4.79575 13.332 3.69885 12.2613L3.30954 11.8769C1.138 9.70535 0.866398 5.56563 2.80223 3.6298Z" fill="#FFFDFD"/>
</svg>
